<svg version="1.1" id="Layer_1" xmlns="http://www.w3.org/2000/svg" xmlns:xlink="http://www.w3.org/1999/xlink" x="0px" y="0px"
	 width="100%" viewBox="0 0 612 408" enable-background="new 0 0 612 408" xml:space="preserve">
<path fill="#000000" opacity="1.000000" stroke="none" 
	d="
M340.000000,409.000000 
	C226.694305,409.000000 113.888603,409.000000 1.041452,409.000000 
	C1.041452,273.060944 1.041452,137.121887 1.041452,1.091415 
	C204.889069,1.091415 408.778168,1.091415 612.833618,1.091415 
	C612.833618,136.999847 612.833618,272.999908 612.833618,409.000000 
	C522.121826,409.000000 431.310913,409.000000 340.000000,409.000000 
M213.801666,154.913315 
	C213.577927,154.235596 213.354187,153.557892 212.531647,153.062653 
	C211.992889,153.366394 211.454132,153.670151 210.260040,154.168121 
	C201.132843,160.175415 200.494019,174.067062 209.389008,182.554688 
	C216.724960,188.948166 225.043793,189.581924 234.712357,186.721527 
	C236.160629,186.361481 237.884552,186.384705 239.009720,185.575439 
	C244.048935,181.951126 246.895996,184.970779 250.952713,188.006149 
	C258.043823,193.311996 265.645996,198.615662 273.876434,201.585876 
	C295.574707,209.416428 317.789215,207.706635 338.743317,199.242538 
	C356.529541,192.058090 373.411621,182.554367 390.417908,173.555573 
	C398.473694,169.292892 405.812836,163.507568 415.676727,167.729782 
	C415.814423,167.788712 416.005524,167.722794 416.784882,168.100052 
	C428.534271,171.754349 440.283691,175.408630 453.442291,179.501205 
	C445.037750,187.279068 437.891541,193.940903 430.692230,200.544861 
	C415.980316,214.040115 401.253021,227.518677 386.499298,240.968170 
	C383.785858,243.441757 382.916016,246.141846 383.701538,249.884171 
	C389.583435,277.905090 395.288208,305.963196 401.029816,334.013489 
	C401.314148,335.402557 401.425446,336.827057 401.744019,339.165161 
	C399.580444,338.417236 398.195831,338.088898 396.944946,337.483978 
	C371.768677,325.309113 346.631256,313.053436 321.411835,300.968842 
	C318.516449,299.581390 315.180786,299.112732 311.393219,298.424408 
	C307.762299,300.427368 304.050964,302.298401 300.513733,304.454956 
	C279.799408,317.084015 259.132141,329.790283 238.423279,342.428345 
	C237.132675,343.215973 235.623566,343.645569 233.050507,344.735504 
	C234.086212,337.004028 234.957764,330.497955 235.929474,323.147644 
	C237.223038,313.087646 238.516586,303.027679 240.134277,292.236481 
	C242.156738,278.250336 243.858627,264.206482 246.361176,250.306763 
	C247.346985,244.831268 245.297913,242.076645 241.270737,239.224335 
	C224.509735,227.353104 206.072525,219.816223 185.689590,217.223114 
	C182.319199,216.794312 180.427567,215.386307 179.041962,212.242981 
	C175.181488,203.485229 168.570786,197.417496 159.719208,193.752335 
	C147.177338,188.559174 134.224915,188.468475 120.950790,189.856506 
	C88.772972,193.221191 59.649162,204.320557 33.518936,223.331329 
	C32.051952,224.398636 30.898197,225.896454 29.598660,227.193893 
	C29.959354,227.721527 30.320051,228.249161 30.680748,228.776794 
	C33.148872,227.411865 35.639198,226.085373 38.081207,224.675217 
	C47.702427,219.119370 56.953197,212.770844 66.990982,208.117676 
	C90.994926,196.990265 116.254982,190.926193 142.931717,193.037552 
	C156.526917,194.113571 168.007004,199.418671 175.243042,211.782852 
	C177.219299,215.159622 176.812378,216.923721 172.665558,218.308090 
	C168.828094,219.589188 165.173447,221.870819 161.927185,224.351578 
	C158.143234,227.243225 156.724854,231.893097 158.779709,235.990387 
	C160.208969,238.840240 163.580612,241.494904 166.661987,242.549545 
	C170.980209,244.027496 174.873398,241.706345 177.057022,237.616333 
	C178.687759,234.561874 180.114227,231.326401 181.097565,228.013016 
	C183.262238,220.719055 184.342606,220.007874 192.040024,221.475449 
	C208.819305,224.674530 224.086044,231.239029 238.027588,241.168045 
	C242.258499,244.181229 243.638458,247.245056 242.809830,252.416794 
	C240.653244,265.876678 239.102432,279.433655 237.120163,293.771423 
	C235.715820,303.838348 234.311478,313.905273 232.561188,324.666870 
	C231.510452,331.715851 230.380066,338.754730 229.482300,345.823151 
	C229.320450,347.097504 229.760971,348.842285 230.604568,349.699463 
	C231.093018,350.195740 233.129745,349.669373 234.148560,349.063385 
	C242.270187,344.232544 250.344879,339.320801 258.377075,334.342102 
	C276.268005,323.252502 294.125854,312.109650 312.741058,301.082611 
	C315.056458,301.980591 317.444702,302.727020 319.676178,303.799622 
	C346.657715,316.769135 373.610352,329.798889 400.599182,342.753204 
	C401.851562,343.354309 403.374146,343.392395 404.770905,343.692719 
	C404.995941,342.151917 405.628357,340.540192 405.374664,339.082733 
	C404.348236,333.186127 403.033905,327.339966 401.853119,321.469727 
	C397.161438,298.145294 392.599243,274.793671 387.698364,251.513306 
	C386.667694,246.617477 388.505493,243.667160 391.883575,240.720016 
	C398.268829,235.149475 404.502563,229.402969 410.731781,223.656418 
	C425.643555,209.900055 440.490143,196.072922 455.422729,182.339279 
	C459.196259,178.868744 459.164276,177.481415 454.379059,176.087631 
	C442.568878,172.647659 430.689484,169.445267 418.135681,166.003418 
	C416.039429,165.069565 413.943146,164.135727 410.760803,162.718033 
	C428.427856,152.683945 445.731537,146.094406 464.722046,141.697617 
	C479.802307,138.573715 495.079956,136.930023 510.404724,138.216003 
	C518.582336,138.902222 527.041199,140.473206 534.592651,143.556458 
	C553.901489,151.440262 566.505249,166.990234 577.551208,183.971664 
	C579.065552,186.299744 580.998352,188.355667 582.737427,190.537598 
	C583.335022,190.152054 583.932556,189.766495 584.530151,189.380951 
	C583.354492,187.175629 582.404907,184.808289 580.961670,182.794830 
	C576.304993,176.298660 571.867126,169.582077 566.617371,163.587601 
	C554.637817,149.908707 540.700806,138.669479 522.000061,136.362473 
	C510.493164,134.942932 498.725006,134.901993 487.113403,135.323624 
	C479.052246,135.616333 471.057953,137.749939 462.221283,139.133072 
	C443.865906,142.540833 427.004242,149.905289 410.455902,158.262329 
	C407.449249,159.780685 403.283630,160.693115 400.129028,159.926498 
	C388.666870,157.141083 377.350647,153.697815 366.118896,150.070557 
	C363.911713,149.357742 361.701050,147.054382 360.562134,144.914902 
	C355.876678,136.113419 351.570190,127.108719 347.186615,118.148277 
	C338.340179,100.065300 329.567352,81.946129 320.650452,63.898083 
	C319.919922,62.419525 318.465057,61.118252 317.025848,60.296841 
	C316.664032,60.090340 314.701935,61.872852 314.078796,63.058475 
	C299.223663,91.323486 284.378204,119.594162 269.701782,147.952179 
	C264.380127,158.234680 258.369995,167.887161 249.255447,175.306732 
	C247.230972,176.954697 245.797913,177.578781 244.046616,174.914642 
	C240.495102,169.512009 236.704926,164.266251 232.627716,158.408875 
	C228.620071,154.794540 224.525391,151.423889 217.742599,152.722412 
	C223.040298,156.223724 227.485535,159.161621 232.159607,162.743317 
	C233.775681,165.221268 235.491379,167.640610 236.990082,170.187622 
	C242.589691,179.704117 242.563034,179.719803 232.025803,184.897812 
	C224.275513,186.453644 217.227371,185.053146 210.681580,179.349808 
	C204.324280,169.950897 204.686234,163.835007 212.424179,156.490601 
	C212.735260,156.009277 213.046356,155.527939 213.801666,154.913315 
z"/>
<path fill="#242424" opacity="1.000000" stroke="none" 
	d="
M232.829590,184.818039 
	C242.563034,179.719803 242.589691,179.704117 236.990082,170.187622 
	C235.491379,167.640610 233.775681,165.221268 232.143097,162.102615 
	C232.422089,160.626541 232.717621,159.791183 233.013153,158.955811 
	C236.704926,164.266251 240.495102,169.512009 244.046616,174.914642 
	C245.797913,177.578781 247.230972,176.954697 249.255447,175.306732 
	C258.369995,167.887161 264.380127,158.234680 269.701782,147.952179 
	C284.378204,119.594162 299.223663,91.323486 314.078796,63.058475 
	C314.701935,61.872852 316.664032,60.090340 317.025848,60.296841 
	C318.465057,61.118252 319.919922,62.419525 320.650452,63.898083 
	C329.567352,81.946129 338.340179,100.065300 347.186615,118.148277 
	C351.570190,127.108719 355.876678,136.113419 360.562134,144.914902 
	C361.701050,147.054382 363.911713,149.357742 366.118896,150.070557 
	C377.350647,153.697815 388.666870,157.141083 400.129028,159.926498 
	C403.283630,160.693115 407.449249,159.780685 410.455902,158.262329 
	C427.004242,149.905289 443.865906,142.540833 462.742249,139.356949 
	C463.483246,140.299698 463.703308,141.018570 463.923370,141.737442 
	C445.731537,146.094406 428.427856,152.683945 410.760803,162.718033 
	C413.943146,164.135727 416.039429,165.069565 418.267731,166.212433 
	C417.657074,166.852661 416.914368,167.283890 416.171692,167.715149 
	C416.005524,167.722794 415.814423,167.788712 415.676727,167.729782 
	C405.812836,163.507568 398.473694,169.292892 390.417908,173.555573 
	C373.411621,182.554367 356.529541,192.058090 338.743317,199.242538 
	C317.789215,207.706635 295.574707,209.416428 273.876434,201.585876 
	C265.645996,198.615662 258.043823,193.311996 250.952713,188.006149 
	C246.895996,184.970779 244.048935,181.951126 239.009720,185.575439 
	C237.884552,186.384705 236.160629,186.361481 234.197357,186.494995 
	C233.398102,185.784973 233.113846,185.301514 232.829590,184.818039 
M276.527985,199.071442 
	C301.880676,207.159439 326.026306,202.099335 349.181030,191.309967 
	C364.828217,184.018890 379.770508,175.213074 395.002716,167.037582 
	C396.173553,166.409180 397.142944,165.405472 399.029388,163.933853 
	C396.141876,162.778641 394.393280,161.908905 392.548096,161.369690 
	C383.445435,158.709641 374.209930,156.447708 365.259125,153.356598 
	C362.329529,152.344879 359.102509,149.766876 357.734650,147.040619 
	C345.716492,123.086800 334.093842,98.934601 322.336182,74.849892 
	C320.912537,71.933678 319.383118,69.069099 317.437042,65.271912 
	C315.646484,67.887573 314.271454,69.520622 313.303558,71.367119 
	C300.790924,95.237305 288.412262,119.177971 275.836334,143.014618 
	C269.092682,155.796707 262.807343,168.961792 251.124680,178.298569 
	C248.556381,180.351166 249.324173,181.972412 251.259460,184.011459 
	C258.091492,191.209778 266.616272,195.522873 276.527985,199.071442 
z"/>
<path fill="#222222" opacity="1.000000" stroke="none" 
	d="
M237.309937,292.951874 
	C239.102432,279.433655 240.653244,265.876678 242.809830,252.416794 
	C243.638458,247.245056 242.258499,244.181229 238.027588,241.168045 
	C224.086044,231.239029 208.819305,224.674530 192.040024,221.475449 
	C184.342606,220.007874 183.262238,220.719055 181.097565,228.013016 
	C180.114227,231.326401 178.687759,234.561874 177.057022,237.616333 
	C174.873398,241.706345 170.980209,244.027496 166.661987,242.549545 
	C163.580612,241.494904 160.208969,238.840240 158.779709,235.990387 
	C156.724854,231.893097 158.143234,227.243225 161.927185,224.351578 
	C165.173447,221.870819 168.828094,219.589188 172.665558,218.308090 
	C176.812378,216.923721 177.219299,215.159622 175.243042,211.782852 
	C168.007004,199.418671 156.526917,194.113571 142.931717,193.037552 
	C116.254982,190.926193 90.994926,196.990265 66.990982,208.117676 
	C56.953197,212.770844 47.702427,219.119370 38.081207,224.675217 
	C35.639198,226.085373 33.148872,227.411865 30.680748,228.776794 
	C30.320051,228.249161 29.959354,227.721527 29.598660,227.193893 
	C30.898197,225.896454 32.051952,224.398636 33.518936,223.331329 
	C59.649162,204.320557 88.772972,193.221191 120.950790,189.856506 
	C134.224915,188.468475 147.177338,188.559174 159.719208,193.752335 
	C168.570786,197.417496 175.181488,203.485229 179.041962,212.242981 
	C180.427567,215.386307 182.319199,216.794312 185.689590,217.223114 
	C206.072525,219.816223 224.509735,227.353104 241.270737,239.224335 
	C245.297913,242.076645 247.346985,244.831268 246.361176,250.306763 
	C243.858627,264.206482 242.156738,278.250336 239.659439,292.603027 
	C238.559708,292.963715 237.934830,292.957794 237.309937,292.951874 
M162.621399,236.748123 
	C167.713898,240.984497 170.900299,240.626953 174.494904,235.272659 
	C175.600891,233.625275 176.995285,231.849396 177.216599,230.007278 
	C177.531540,227.385574 176.885468,224.648438 176.649963,221.960602 
	C174.324265,222.359146 171.823166,222.353836 169.720871,223.266815 
	C167.499130,224.231705 165.482590,225.886002 163.691574,227.573624 
	C161.172073,229.947693 160.240311,232.849243 162.621399,236.748123 
z"/>
<path fill="#202020" opacity="1.000000" stroke="none" 
	d="
M416.478271,167.907593 
	C416.914368,167.283890 417.657074,166.852661 418.618835,166.284393 
	C430.689484,169.445267 442.568878,172.647659 454.379059,176.087631 
	C459.164276,177.481415 459.196259,178.868744 455.422729,182.339279 
	C440.490143,196.072922 425.643555,209.900055 410.731781,223.656418 
	C404.502563,229.402969 398.268829,235.149475 391.883575,240.720016 
	C388.505493,243.667160 386.667694,246.617477 387.698364,251.513306 
	C392.599243,274.793671 397.161438,298.145294 401.853119,321.469727 
	C403.033905,327.339966 404.348236,333.186127 405.374664,339.082733 
	C405.628357,340.540192 404.995941,342.151917 404.770905,343.692719 
	C403.374146,343.392395 401.851562,343.354309 400.599182,342.753204 
	C373.610352,329.798889 346.657715,316.769135 319.676178,303.799622 
	C317.444702,302.727020 315.056458,301.980591 312.373474,300.688354 
	C312.020355,299.602112 312.034821,298.910095 312.049255,298.218079 
	C315.180786,299.112732 318.516449,299.581390 321.411835,300.968842 
	C346.631256,313.053436 371.768677,325.309113 396.944946,337.483978 
	C398.195831,338.088898 399.580444,338.417236 401.744019,339.165161 
	C401.425446,336.827057 401.314148,335.402557 401.029816,334.013489 
	C395.288208,305.963196 389.583435,277.905090 383.701538,249.884171 
	C382.916016,246.141846 383.785858,243.441757 386.499298,240.968170 
	C401.253021,227.518677 415.980316,214.040115 430.692230,200.544861 
	C437.891541,193.940903 445.037750,187.279068 453.442291,179.501205 
	C440.283691,175.408630 428.534271,171.754349 416.478271,167.907593 
z"/>
<path fill="#1D1E1E" opacity="1.000000" stroke="none" 
	d="
M464.322693,141.717529 
	C463.703308,141.018570 463.483246,140.299698 463.148499,139.320953 
	C471.057953,137.749939 479.052246,135.616333 487.113403,135.323624 
	C498.725006,134.901993 510.493164,134.942932 522.000061,136.362473 
	C540.700806,138.669479 554.637817,149.908707 566.617371,163.587601 
	C571.867126,169.582077 576.304993,176.298660 580.961670,182.794830 
	C582.404907,184.808289 583.354492,187.175629 584.530151,189.380951 
	C583.932556,189.766495 583.335022,190.152054 582.737427,190.537598 
	C580.998352,188.355667 579.065552,186.299744 577.551208,183.971664 
	C566.505249,166.990234 553.901489,151.440262 534.592651,143.556458 
	C527.041199,140.473206 518.582336,138.902222 510.404724,138.216003 
	C495.079956,136.930023 479.802307,138.573715 464.322693,141.717529 
z"/>
<path fill="#242424" opacity="1.000000" stroke="none" 
	d="
M311.721252,298.321228 
	C312.034821,298.910095 312.020355,299.602112 312.001556,300.641296 
	C294.125854,312.109650 276.268005,323.252502 258.377075,334.342102 
	C250.344879,339.320801 242.270187,344.232544 234.148560,349.063385 
	C233.129745,349.669373 231.093018,350.195740 230.604568,349.699463 
	C229.760971,348.842285 229.320450,347.097504 229.482300,345.823151 
	C230.380066,338.754730 231.510452,331.715851 232.980927,324.287842 
	C234.210205,323.936462 235.019775,323.964142 235.829330,323.991821 
	C234.957764,330.497955 234.086212,337.004028 233.050507,344.735504 
	C235.623566,343.645569 237.132675,343.215973 238.423279,342.428345 
	C259.132141,329.790283 279.799408,317.084015 300.513733,304.454956 
	C304.050964,302.298401 307.762299,300.427368 311.721252,298.321228 
z"/>
<path fill="#242424" opacity="1.000000" stroke="none" 
	d="
M212.011475,156.878525 
	C204.686234,163.835007 204.324280,169.950897 210.696045,179.874954 
	C210.133469,180.938812 209.556442,181.477539 208.979401,182.016266 
	C200.494019,174.067062 201.132843,160.175415 210.869354,153.947174 
	C212.029266,153.444214 212.579865,153.162201 213.130447,152.880173 
	C213.354187,153.557892 213.577927,154.235596 213.383118,155.193390 
	C212.646881,155.941803 212.329178,156.410172 212.011475,156.878525 
z"/>
<path fill="#1D1E1E" opacity="1.000000" stroke="none" 
	d="
M235.879395,323.569733 
	C235.019775,323.964142 234.210205,323.936462 233.153900,323.940491 
	C234.311478,313.905273 235.715820,303.838348 237.215057,293.361633 
	C237.934830,292.957794 238.559708,292.963715 239.497375,292.968628 
	C238.516586,303.027679 237.223038,313.087646 235.879395,323.569733 
z"/>
<path fill="#1D1E1E" opacity="1.000000" stroke="none" 
	d="
M209.184204,182.285477 
	C209.556442,181.477539 210.133469,180.938812 210.888184,180.159851 
	C217.227371,185.053146 224.275513,186.453644 232.427704,184.857925 
	C233.113846,185.301514 233.398102,185.784973 233.818481,186.507584 
	C225.043793,189.581924 216.724960,188.948166 209.184204,182.285477 
z"/>
<path fill="#1D1E1E" opacity="1.000000" stroke="none" 
	d="
M232.820435,158.682343 
	C232.717621,159.791183 232.422089,160.626541 232.028671,161.780731 
	C227.485535,159.161621 223.040298,156.223724 217.742599,152.722412 
	C224.525391,151.423889 228.620071,154.794540 232.820435,158.682343 
z"/>
<path fill="#1D1E1E" opacity="1.000000" stroke="none" 
	d="
M212.831055,152.971405 
	C212.579865,153.162201 212.029266,153.444214 211.197021,153.850067 
	C211.454132,153.670151 211.992889,153.366394 212.831055,152.971405 
z"/>
<path fill="#1D1E1E" opacity="1.000000" stroke="none" 
	d="
M212.217834,156.684570 
	C212.329178,156.410172 212.646881,155.941803 213.161011,155.260040 
	C213.046356,155.527939 212.735260,156.009277 212.217834,156.684570 
z"/>
<path fill="#000000" opacity="1.000000" stroke="none" 
	d="
M276.148468,198.954895 
	C266.616272,195.522873 258.091492,191.209778 251.259460,184.011459 
	C249.324173,181.972412 248.556381,180.351166 251.124680,178.298569 
	C262.807343,168.961792 269.092682,155.796707 275.836334,143.014618 
	C288.412262,119.177971 300.790924,95.237305 313.303558,71.367119 
	C314.271454,69.520622 315.646484,67.887573 317.437042,65.271912 
	C319.383118,69.069099 320.912537,71.933678 322.336182,74.849892 
	C334.093842,98.934601 345.716492,123.086800 357.734650,147.040619 
	C359.102509,149.766876 362.329529,152.344879 365.259125,153.356598 
	C374.209930,156.447708 383.445435,158.709641 392.548096,161.369690 
	C394.393280,161.908905 396.141876,162.778641 399.029388,163.933853 
	C397.142944,165.405472 396.173553,166.409180 395.002716,167.037582 
	C379.770508,175.213074 364.828217,184.018890 349.181030,191.309967 
	C326.026306,202.099335 301.880676,207.159439 276.148468,198.954895 
z"/>
<path fill="#000000" opacity="1.000000" stroke="none" 
	d="
M162.408844,236.438065 
	C160.240311,232.849243 161.172073,229.947693 163.691574,227.573624 
	C165.482590,225.886002 167.499130,224.231705 169.720871,223.266815 
	C171.823166,222.353836 174.324265,222.359146 176.649963,221.960602 
	C176.885468,224.648438 177.531540,227.385574 177.216599,230.007278 
	C176.995285,231.849396 175.600891,233.625275 174.494904,235.272659 
	C170.900299,240.626953 167.713898,240.984497 162.408844,236.438065 
z"/>
</svg>