<svg xmlns="http://www.w3.org/2000/svg" width="1920" height="1080" viewBox="0 0 1920 1080">
  <defs>
    <style>
      .cls-1 {
        fill: none;
        stroke: #000;
        stroke-width: 5px;
        fill-rule: evenodd;
      }
    </style>
  </defs>
  <path class="cls-1" d="M226,604s124.375-110.75,306-99,98.375,130.75,65,132c-30.375,4.25-32.625-15.75-27-32s57.375-69.25,228,39c-0.375.25-39,279-39,279L976,788l242,117-53-258,192-177-255-75L988,161,844,427s-166.625,106.75-156,9c13.625-76.75,81.875-17.75,95,18s74.375,79.75,157,87,233.37-83.75,248-93,127.87-84.75,243-89,180.37,2.75,261,141"/>
</svg>
